<svg width="88" height="87" viewBox="0 0 88 87" fill="none" xmlns="http://www.w3.org/2000/svg">
<path d="M85.7643 43.7277C85.7643 66.7149 67.099 85.3538 44.0691 85.3538C21.0393 85.3538 2.37402 66.7149 2.37402 43.7277C2.37402 20.7405 21.0393 2.10156 44.0691 2.10156C67.099 2.10156 85.7643 20.7405 85.7643 43.7277Z" stroke="#787676" stroke-width="3"/>
<g clip-path="url(#clip0_190_3471)">
<path d="M43.8889 24.2998H44.1922C46.9934 24.3097 61.1869 24.4085 65.0139 25.4034C66.1708 25.707 67.2251 26.2989 68.0712 27.1198C68.9174 27.9407 69.5259 28.9619 69.836 30.0814C70.1801 31.3333 70.4221 32.9903 70.5857 34.7001L70.6197 35.0427L70.6947 35.8992L70.722 36.2418C70.9435 39.2529 70.9708 42.0728 70.9742 42.6889V42.936C70.9708 43.5751 70.9401 46.5861 70.6947 49.7223L70.6675 50.0682L70.6368 50.4109C70.4664 52.2952 70.2142 54.1664 69.836 55.5435C69.5259 56.6629 68.9174 57.6842 68.0712 58.5051C67.2251 59.326 66.1708 59.9178 65.0139 60.2214C61.0608 61.2493 46.0358 61.3218 43.9536 61.3251H43.4697C42.4167 61.3251 38.0615 61.3053 33.4951 61.1538L32.9157 61.134L32.6192 61.1208L32.0365 61.0977L31.4538 61.0747C27.6711 60.9133 24.069 60.653 22.4094 60.2182C21.2529 59.9148 20.199 59.3235 19.3528 58.5032C18.5067 57.6829 17.8979 56.6623 17.5874 55.5435C17.2091 54.1697 16.9569 52.2952 16.7866 50.4109L16.7593 50.065L16.732 49.7223C16.5629 47.4901 16.4697 45.2532 16.4526 43.015L16.4526 42.6098C16.4594 41.9015 16.4867 39.4538 16.6707 36.7525L16.6945 36.4131L16.7048 36.2418L16.732 35.8992L16.807 35.0427L16.8411 34.7001C17.0047 32.9903 17.2466 31.33 17.5908 30.0814C17.9008 28.9619 18.5093 27.9407 19.3555 27.1198C20.2017 26.2989 21.2559 25.707 22.4129 25.4034C24.0725 24.9751 27.6745 24.7116 31.4572 24.5469L32.0365 24.5238L32.6227 24.5041L32.9157 24.4942L33.4985 24.4711C36.7417 24.3703 39.9863 24.3143 43.2312 24.3031L43.8889 24.2998ZM38.2626 34.8747V50.7469L52.4289 42.8141L38.2626 34.8747Z" fill="#444242"/>
</g>
<defs>
<clipPath id="clip0_190_3471">
<rect width="54.525" height="52.7097" fill="white" transform="translate(16.4526 17.7148)"/>
</clipPath>
</defs>
</svg>
