<svg width="89" height="86" viewBox="0 0 89 86" fill="none" xmlns="http://www.w3.org/2000/svg">
<path d="M46.0905 69.3966V47.0919H53.933L55.0987 38.3589H46.0905V32.7964C46.0905 30.2763 46.8223 28.551 50.5918 28.551H55.3682V20.765C53.0442 20.5261 50.7082 20.4107 48.3709 20.4194C41.4389 20.4194 36.6796 24.4797 36.6796 31.9337V38.3426H28.8882V47.0756H36.6966V69.3966H46.0905Z" fill="#444242"/>
<path d="M86.8455 42.8709C86.8455 65.6871 67.9755 84.2331 44.6361 84.2331C21.2967 84.2331 2.42676 65.6871 2.42676 42.8709C2.42676 20.0548 21.2967 1.50879 44.6361 1.50879C67.9755 1.50879 86.8455 20.0548 86.8455 42.8709Z" stroke="#787676" stroke-width="3"/>
</svg>
