<svg width="87" height="86" viewBox="0 0 87 86" fill="none" xmlns="http://www.w3.org/2000/svg">
<path d="M84.809 43.2233C84.809 65.9339 66.3735 84.3479 43.6281 84.3479C20.8826 84.3479 2.44717 65.9339 2.44717 43.2233C2.44717 20.5126 20.8826 2.09863 43.6281 2.09863C66.3735 2.09863 84.809 20.5126 84.809 43.2233Z" stroke="#787676" stroke-width="3"/>
<path fill-rule="evenodd" clip-rule="evenodd" d="M20.1821 53.0005V33.4473C20.1821 30.2062 21.5165 27.0978 23.8918 24.8059C26.267 22.5141 29.4886 21.2266 32.8477 21.2266H53.1127C56.4718 21.2266 59.6934 22.5141 62.0687 24.8059C64.4439 27.0978 65.7783 30.2062 65.7783 33.4473V53.0005C65.7783 56.2417 64.4439 59.3501 62.0687 61.6419C59.6934 63.9337 56.4718 65.2213 53.1127 65.2213H32.8477C29.4886 65.2213 26.267 63.9337 23.8918 61.6419C21.5165 59.3501 20.1821 56.2417 20.1821 53.0005ZM42.9804 53.0005C45.6677 53.0005 48.2449 51.9705 50.1451 50.137C52.0453 48.3035 53.1129 45.8168 53.1129 43.2239C53.1129 40.631 52.0453 38.1443 50.1451 36.3108C48.2449 34.4773 45.6677 33.4473 42.9804 33.4473C40.293 33.4473 37.7158 34.4773 35.8156 36.3108C33.9154 38.1443 32.8478 40.631 32.8478 43.2239C32.8478 45.8168 33.9154 48.3035 35.8156 50.137C37.7158 51.9705 40.293 53.0005 42.9804 53.0005ZM57.1095 30.5502C56.7814 30.8674 56.3365 31.0456 55.8726 31.0456C55.4087 31.0456 54.9638 30.8674 54.6357 30.5502C54.3077 30.233 54.1234 29.8027 54.1234 29.3541C54.1234 28.9055 54.3077 28.4753 54.6357 28.1581C54.9638 27.8409 55.4087 27.6627 55.8726 27.6627C56.3365 27.6627 56.7814 27.8409 57.1095 28.1581C57.4375 28.4753 57.6218 28.9055 57.6218 29.3541C57.6218 29.8027 57.4375 30.233 57.1095 30.5502Z" fill="#444242"/>
<path d="M56.9124 29.806L56.9376 29.7793Z" fill="white"/>
</svg>
