<svg width="96" height="95" viewBox="0 0 96 95" fill="none" xmlns="http://www.w3.org/2000/svg">
<path d="M40.79 24.7364L36.5 28.8719L53.24 45.5177C56 49 56 49 53.24 51.4552L36.5 68L40.79 72.2364C40.79 72.2364 64.79 49.4864 64.79 48.4864C64.79 47.4864 40.79 24.7364 40.79 24.7364Z" fill="#FF621E"/>
<path d="M48 89.0625C56.3068 89.0625 64.4271 86.6249 71.3339 82.058C78.2408 77.491 83.624 70.9999 86.8029 63.4053C89.9818 55.8107 90.8135 47.4539 89.193 39.3916C87.5724 31.3292 83.5723 23.9235 77.6985 18.1109C71.8247 12.2983 64.341 8.33983 56.1938 6.73613C48.0466 5.13243 39.6018 5.95551 31.9273 9.10128C24.2528 12.247 17.6933 17.5742 13.0783 24.4091C8.46323 31.244 5.99998 39.2797 5.99998 47.5C6.01269 58.5192 10.4418 69.0835 18.3155 76.8753C26.1893 84.667 36.8648 89.0499 48 89.0625ZM48 11.875C55.1201 11.875 62.0803 13.9644 68.0005 17.8789C73.9207 21.7934 78.5349 27.3573 81.2596 33.8669C83.9844 40.3765 84.6973 47.5395 83.3083 54.4501C81.9192 61.3607 78.4905 67.7085 73.4558 72.6907C68.4211 77.6729 62.0065 81.0659 55.0232 82.4405C48.0399 83.8151 40.8015 83.1096 34.2234 80.4132C27.6452 77.7169 22.0228 73.1507 18.0671 67.2922C14.1114 61.4337 12 54.546 12 47.5C12.0111 38.0551 15.8075 29.0001 22.5564 22.3215C29.3053 15.6429 38.4556 11.886 48 11.875Z" fill="#FF621E"/>
</svg>
