<svg width="39" height="41" viewBox="0 0 39 41" fill="none" xmlns="http://www.w3.org/2000/svg">
<path d="M35.9191 40.1324L22.6289 26.3897C21.5741 27.2623 20.3611 27.9531 18.9899 28.462C17.6187 28.971 16.1596 29.2255 14.6126 29.2255C10.7802 29.2255 7.53708 27.8527 4.88325 25.1071C2.22942 22.3615 0.901797 19.008 0.900391 15.0466C0.900391 11.0838 2.22801 7.73027 4.88325 4.98611C7.53848 2.24194 10.7816 0.86913 14.6126 0.867676C18.4449 0.867676 21.6887 2.24049 24.344 4.98611C26.9992 7.73173 28.3261 11.0852 28.3247 15.0466C28.3247 16.6463 28.0786 18.1551 27.5864 19.5729C27.0941 20.9908 26.4261 22.2451 25.5823 23.3358L38.8725 37.0785L35.9191 40.1324ZM14.6126 24.8628C17.2495 24.8628 19.4913 23.9088 21.3378 22.0008C23.1844 20.0928 24.107 17.7748 24.1056 15.0466C24.1056 12.3199 23.183 10.0025 21.3378 8.09456C19.4927 6.18659 17.2509 5.23188 14.6126 5.23042C11.9756 5.23042 9.73454 6.18514 7.88938 8.09456C6.04421 10.004 5.12092 12.3213 5.11952 15.0466C5.11952 17.7733 6.0428 20.0914 7.88938 22.0008C9.73595 23.9102 11.977 24.8642 14.6126 24.8628Z" fill="#5C5959"/>
</svg>
