<svg width="96" height="95" viewBox="0 0 96 95" fill="none" xmlns="http://www.w3.org/2000/svg">
<path d="M55.21 24.7364L59.5 28.8719L42.76 45.5177C40 49 40 49 42.76 51.4552L59.5 68L55.21 72.2364C55.21 72.2364 31.21 49.4864 31.21 48.4864C31.21 47.4864 55.21 24.7364 55.21 24.7364Z" fill="#FF621E"/>
<path d="M48 89.0625C39.6932 89.0625 31.5729 86.6249 24.6661 82.058C17.7592 77.491 12.376 70.9999 9.19708 63.4053C6.0182 55.8107 5.18646 47.4539 6.80704 39.3916C8.42762 31.3292 12.4277 23.9235 18.3015 18.1109C24.1753 12.2983 31.659 8.33983 39.8062 6.73613C47.9534 5.13243 56.3982 5.95551 64.0727 9.10128C71.7472 12.247 78.3067 17.5742 82.9217 24.4091C87.5368 31.244 90 39.2797 90 47.5C89.9873 58.5192 85.5582 69.0835 77.6845 76.8753C69.8107 84.667 59.1352 89.0499 48 89.0625ZM48 11.875C40.8799 11.875 33.9197 13.9644 27.9995 17.8789C22.0793 21.7934 17.4651 27.3573 14.7404 33.8669C12.0156 40.3765 11.3027 47.5395 12.6917 54.4501C14.0808 61.3607 17.5095 67.7085 22.5442 72.6907C27.5789 77.6729 33.9935 81.0659 40.9768 82.4405C47.9601 83.8151 55.1985 83.1096 61.7766 80.4132C68.3548 77.7169 73.9772 73.1507 77.9329 67.2922C81.8886 61.4337 84 54.546 84 47.5C83.9889 38.0551 80.1925 29.0001 73.4436 22.3215C66.6947 15.6429 57.5444 11.886 48 11.875Z" fill="#FF621E"/>
</svg>
