<svg width="52" height="48" viewBox="0 0 52 48" fill="none" xmlns="http://www.w3.org/2000/svg">
<g clip-path="url(#clip0_153_6462)">
<path d="M23.4697 0.919922L28.4814 0.931602C30.4566 1.15119 32.1881 2.00616 33.6149 3.44981C34.7803 4.62715 35.3921 5.99605 35.4277 7.48642H49.3279C49.792 7.48889 50.2362 7.66076 50.5627 7.96429C50.8893 8.26781 51.0716 8.67818 51.0695 9.10527C51.0705 9.31663 51.0263 9.5261 50.9393 9.72173C50.8523 9.91736 50.7243 10.0953 50.5626 10.2454C50.4008 10.3955 50.2086 10.5148 49.9967 10.5966C49.7849 10.6783 49.5576 10.7209 49.3279 10.7218L44.6665 10.7194V37.8801C44.6665 43.8206 42.2572 47.6399 36.9459 47.6399H14.0505C8.73924 47.6399 6.36796 43.8416 6.36796 37.8801V10.7194H2.03413C1.57108 10.7176 1.12772 10.5469 0.801239 10.2447C0.47476 9.94259 0.291806 9.53366 0.292482 9.1076C0.292482 8.21291 1.07191 7.49109 2.03413 7.49109H15.9217C15.9572 6.29039 16.4421 5.07333 17.3282 3.87029C18.6484 2.07624 20.7099 1.09279 23.4697 0.919922ZM41.1832 10.7194H9.84872V37.8801C9.84872 42.2905 11.1689 44.4069 14.0505 44.4069H36.9459C39.8376 44.4069 41.1858 42.2718 41.1858 37.8801L41.1832 10.7194ZM17.3434 15.7302C18.3031 15.7302 19.0825 16.4543 19.0825 17.3467V36.1515C19.0835 36.3628 19.0393 36.5723 18.9523 36.7679C18.8653 36.9636 18.7373 37.1415 18.5756 37.2916C18.4138 37.4417 18.2216 37.5611 18.0097 37.6428C17.7979 37.7245 17.5706 37.7671 17.3409 37.768C16.8774 37.7655 16.4339 37.5939 16.1078 37.2908C15.7817 36.9877 15.5997 36.5779 15.6018 36.1515V17.3467C15.6018 16.4543 16.3837 15.7302 17.3434 15.7302ZM24.2618 15.7302C25.2266 15.7302 26.0034 16.4543 26.0034 17.3467V36.1515C26.0044 36.3628 25.9602 36.5723 25.8732 36.7679C25.7862 36.9636 25.6582 37.1415 25.4965 37.2916C25.3348 37.4417 25.1425 37.5611 24.9306 37.6428C24.7188 37.7245 24.4915 37.7671 24.2618 37.768C23.7983 37.7655 23.3548 37.5939 23.0287 37.2908C22.7027 36.9877 22.5206 36.5779 22.5227 36.1515V17.3467C22.5227 16.4543 23.3021 15.7302 24.2618 15.7302ZM31.1878 15.7302C32.1475 15.7302 32.9269 16.4543 32.9269 17.3467V36.1515C32.9289 36.5779 32.7469 36.9877 32.4208 37.2908C32.0948 37.5939 31.6513 37.7655 31.1878 37.768C30.9581 37.7671 30.7308 37.7245 30.5189 37.6428C30.3071 37.5611 30.1148 37.4417 29.9531 37.2916C29.7914 37.1415 29.6633 36.9636 29.5764 36.7679C29.4894 36.5723 29.4451 36.3628 29.4461 36.1515V17.3467C29.4448 16.92 29.6273 16.5102 29.9538 16.2072C30.2803 15.9042 30.724 15.7326 31.1878 15.7302ZM23.589 4.14827C21.959 4.25339 20.8851 4.76498 20.2022 5.69471C19.6995 6.37448 19.4481 6.96315 19.4075 7.48875L31.9444 7.48642C31.9088 6.80664 31.6168 6.20863 31.0507 5.63631C30.1722 4.74863 29.1973 4.26741 28.2757 4.15295L23.589 4.14827Z" fill="#444242"/>
</g>
<defs>
<clipPath id="clip0_153_6462">
<rect width="50.777" height="46.72" fill="white" transform="translate(0.29248 0.919922)"/>
</clipPath>
</defs>
</svg>
